<svg xmlns="http://www.w3.org/2000/svg" xmlns:xlink="http://www.w3.org/1999/xlink" fill="none" version="1.1" width="122.97187805175781" height="41.837799072265625" viewBox="0 0 122.97187805175781 41.837799072265625"><g style="mix-blend-mode:passthrough"><path d="M18,0L36,10.4595L36,31.3784L18,41.8378L0,31.3784L0,10.4595L18,0ZM18.0574,2.81226L33.7204,11.9137L33.7204,30.1166L23.2537,36.1986L22.1911,20.9189L24.1531,20.9189L24.1531,19.4165L12.134,19.4165L12.134,20.9189L13.7636,20.9189L12.7072,36.1092L2.39445,30.1166L2.39445,11.9137L18.0574,2.81226ZM15.2986,20.9189L15.1411,23.1836L18.6056,20.9189L15.2986,20.9189ZM15.0106,25.0606L14.8253,27.7248L20.8553,23.7831L20.6861,21.3506L15.0106,25.0606ZM20.9745,25.4969L14.6947,29.6018L14.4897,32.5495L21.1617,28.1882L20.9745,25.4969ZM21.2809,29.902L14.3592,34.4265L14.1825,36.9665L14.4224,37.1058L21.4619,32.5043L21.2809,29.902ZM21.581,34.218L15.8734,37.949L18.0574,39.2181L21.7784,37.0559L21.581,34.218ZM18.0479,8.20578L22.4733,12.9154L21.0527,12.9154L21.0527,18.0682L19.2153,18.0682L19.2153,14.7165L16.8422,14.7165L16.8422,18.0682L15.0048,18.0682L15.0048,12.9154L13.6225,12.9154L18.0479,8.20578ZM33.7224,12.8673L35.9807,12.8673L35.9807,15.564L33.7224,15.564L33.7224,12.8673ZM57.6854,15.9276C57.6854,16.537,57.2063,16.9693,56.55,16.9693C55.8938,16.9693,55.4146,16.537,55.4146,15.9276C55.4146,15.3026,55.8938,14.8703,56.55,14.8703C57.2063,14.8703,57.6854,15.3026,57.6854,15.9276ZM70.1281,26.2036L68.2896,26.2036L68.2896,14.8703L70.1281,14.8703L70.1281,18.162L70.0656,19.7245C70.7219,19.0995,71.5031,18.537,72.576,18.537C74.2583,18.537,74.9927,19.6776,74.9927,21.5682L74.9927,26.2036L73.1542,26.2036L73.1542,21.7974C73.1542,20.5734,72.7844,20.1255,71.9198,20.1255C71.2323,20.1255,70.7844,20.438,70.1281,21.0422L70.1281,26.2036ZM84.7948,26.2036L82.9563,26.2036L82.9563,14.8703L84.7948,14.8703L84.7948,18.162L84.7323,19.7245C85.3885,19.0995,86.1698,18.537,87.2427,18.537C88.925,18.537,89.6594,19.6776,89.6594,21.5682L89.6594,26.2036L87.8208,26.2036L87.8208,21.7974C87.8208,20.5734,87.451,20.1255,86.5865,20.1255C85.899,20.1255,85.451,20.438,84.7948,21.0422L84.7948,26.2036ZM45.9198,24.688C45.0708,25.662,43.9667,26.2036,42.6229,26.2036C39.9823,26.2036,37.9042,24.2922,37.9042,20.9016C37.9042,17.563,40.05,15.537,42.6906,15.537C44.0031,15.537,45.0552,16.162,45.7115,16.8651L44.7219,18.0474C44.175,17.5161,43.5552,17.1568,42.7375,17.1568C41.024,17.1568,39.8104,18.563,39.8104,20.8547C39.8104,23.1828,40.9302,24.5891,42.6906,24.5891C43.6177,24.5891,44.3365,24.1672,44.9302,23.5422L45.9198,24.688ZM53.9927,26.2036L47.7792,26.2036L47.7792,15.537L49.6385,15.537L49.6385,24.6359L53.9927,24.6359L53.9927,26.2036ZM81.6594,25.9172C81.2271,26.063,80.6802,26.2036,80.0552,26.2036C78.2323,26.2036,77.5604,25.0526,77.5604,23.4589L77.5604,19.9953L76.4406,19.9953L76.4406,18.6203L77.6542,18.537L77.8781,16.3964L79.4146,16.3964L79.4146,18.537L81.4146,18.537L81.4146,19.9953L79.4146,19.9953L79.4146,23.4589C79.4146,24.3182,79.7688,24.7349,80.5188,24.7349C80.7948,24.7349,81.1125,24.662,81.3365,24.5734L81.6594,25.9172ZM57.4615,26.2036L55.6229,26.2036L55.6229,18.537L57.4615,18.537L57.4615,26.2036ZM66.8833,26.7922C66.8833,28.3234,65.2531,29.537,62.6906,29.537C60.8208,29.537,59.425,28.8651,59.425,27.5005C59.425,26.8547,59.826,26.287,60.5448,25.8391L60.5448,25.7766C60.149,25.5161,59.8417,25.1047,59.8417,24.4901C59.8417,23.9276,60.2583,23.4172,60.7063,23.0995L60.7063,23.037C60.1802,22.6359,59.6854,21.9693,59.6854,21.1568C59.6854,19.5474,61.1385,18.537,62.7896,18.537C62.9395,18.537,63.0851,18.547,63.2247,18.5566C63.4877,18.5747,63.7297,18.5914,63.9406,18.537L66.7531,18.537L66.7531,19.9016L65.3156,19.9016C65.5708,20.1828,65.7635,20.6255,65.7635,21.1307C65.7635,22.7661,64.451,23.6932,62.7896,23.6932C62.451,23.6932,62.0656,23.6255,61.7167,23.4849C61.4771,23.6932,61.3313,23.8703,61.3313,24.1932C61.3313,24.6099,61.649,24.8599,62.6125,24.8599L64.0031,24.8599C65.8938,24.8599,66.8833,25.438,66.8833,26.7922ZM98.9146,22.3807C98.9146,24.7036,97.1385,26.2036,95.1698,26.2036C93.2167,26.2036,91.4406,24.7036,91.4406,22.3807C91.4406,20.0422,93.2167,18.537,95.1698,18.537C97.1385,18.537,98.9146,20.0422,98.9146,22.3807ZM105.488,24.8599C104.8,25.6776,104.029,26.2036,102.956,26.2036C101.279,26.2036,100.54,25.0682,100.54,23.1776L100.54,18.537L102.383,18.537L102.383,22.9484C102.383,24.1724,102.748,24.6203,103.597,24.6203C104.284,24.6203,104.748,24.3234,105.342,23.5995L105.342,18.537L107.18,18.537L107.18,26.2036L105.68,26.2036L105.534,24.8599L105.488,24.8599ZM114.868,23.8859C114.868,25.1203,113.8,26.2036,111.816,26.2036C110.743,26.2036,109.607,25.7401,108.836,25.1203L109.701,24.0266C110.404,24.5109,111.076,24.813,111.878,24.813C112.727,24.813,113.128,24.4536,113.128,23.9693C113.128,23.3807,112.279,23.1255,111.446,22.8391C110.404,22.4953,109.238,21.9641,109.238,20.7922C109.238,19.5161,110.342,18.537,112.102,18.537C113.191,18.537,114.071,18.9901,114.711,19.4849L113.863,20.5318C113.316,20.1776,112.758,19.9328,112.133,19.9328C111.352,19.9328,110.982,20.2609,110.982,20.7036C110.982,21.2609,111.764,21.4797,112.613,21.7505C113.685,22.1099,114.868,22.5682,114.868,23.8859ZM122.67,25.3599C121.92,25.8547,120.972,26.2036,119.982,26.2036C117.805,26.2036,116.107,24.6984,116.107,22.3755C116.107,20.0839,117.883,18.537,119.727,18.537C121.852,18.537,122.972,20.0578,122.972,21.9745C122.972,22.3286,122.941,22.6828,122.894,22.8703L117.904,22.8703C118.06,24.0839,118.956,24.7818,120.222,24.7818C120.894,24.7818,121.472,24.5995,122.045,24.2818L122.67,25.3599ZM61.4094,21.1568C61.4094,22.037,62.0188,22.537,62.7896,22.537C63.5396,22.537,64.149,22.037,64.149,21.1568C64.149,20.3078,63.5552,19.8026,62.7896,19.8026C62.0188,19.8026,61.4094,20.2922,61.4094,21.1568ZM119.774,19.9641C118.847,19.9641,118.045,20.5474,117.883,21.6255L121.373,21.6255C121.373,20.5891,120.847,19.9641,119.774,19.9641ZM93.3313,22.3807C93.3313,23.7766,94.0188,24.7036,95.1698,24.7036C96.326,24.7036,97.0292,23.7766,97.0292,22.3807C97.0292,20.9693,96.326,20.0422,95.1698,20.0422C94.0188,20.0422,93.3313,20.9693,93.3313,22.3807ZM60.9615,27.2349C60.9615,27.9276,61.7323,28.3391,62.9771,28.3391C64.2427,28.3391,65.1073,27.7557,65.1073,27.0995C65.1073,26.5005,64.6125,26.3286,63.7167,26.3286L62.6438,26.3286C62.2115,26.3286,61.8729,26.2974,61.5708,26.2036C61.1542,26.5214,60.9615,26.8703,60.9615,27.2349ZM33.7224,26.3124L35.9807,26.3124L35.9807,29.0091L33.7224,29.0091L33.7224,26.3124Z" fill-rule="evenodd" fill="#fff" fill-opacity="1"/></g></svg>
