<svg width="602" height="160" xmlns="http://www.w3.org/2000/svg"><defs><linearGradient x1="50%" y1="0%" x2="50%" y2="100%" id="linearGradient-1"><stop stop-color="#0093FF" stop-opacity="0" offset="0%"/><stop stop-color="#0093FF" offset="20%"/><stop stop-color="#0093FF" offset="80%"/><stop stop-color="#0093FF" stop-opacity="0" offset="100%"/></linearGradient><linearGradient x1="30.432%" y1="91.781%" x2="50%" y2="36.978%" id="linearGradient-2"><stop stop-color="#00CF68" offset="0%"/><stop stop-color="#00CF68" offset="33.998%"/><stop stop-color="#00CF68" stop-opacity="0" offset="100%"/></linearGradient><linearGradient x1="64.072%" y1="8.892%" x2="40.109%" y2="52.152%" id="linearGradient-3"><stop stop-color="#50F" offset="0%"/><stop stop-color="#50F" offset="33.447%"/><stop stop-color="#50F" stop-opacity="0" offset="100%"/></linearGradient></defs><g id="页面-1" stroke="none" stroke-width="1" fill="none" fill-rule="evenodd"><g id="Deland-Labs" transform="translate(-1111 -5765)" fill-rule="nonzero"><g id="编组-7备份-5" transform="translate(1005 5402)"><g id="编组-12" transform="translate(106 363)"><g id="编组-15备份"><path d="M110.857 12v90.19c0 7.589-9.11 11.4-14.513 6.177l-.163-.161-31.039-31.492v70.715H48V55.807c0-7.59 9.11-11.4 14.514-6.178l.162.16 31.038 31.492V12h17.143Z" id="路径" fill="url('#linearGradient-1')"/><path d="M80 0v17.143c-16.497 0-31.97 6.371-43.611 17.59C24.166 46.512 17.143 62.686 17.143 80c0 22.283 11.853 42.405 30.21 53.624l.647.39V55.807h17.143v91.622c0 5.905-5.833 10.042-11.406 8.089C21.877 144.352 0 114.205 0 80c0-22.019 8.95-42.633 24.493-57.611C39.151 8.264 58.627.163 79.371.002L80 0Z" id="路径" fill="url('#linearGradient-2')"/><path d="M93.714 12c0-5.835 5.703-9.964 11.247-8.143C137.51 14.549 160 45.164 160 80c0 21.406-8.457 41.495-23.244 56.38-14.766 14.865-34.76 23.447-56.109 23.617L80 160v-17.143c16.978 0 32.865-6.751 44.595-18.559 11.627-11.705 18.262-27.466 18.262-44.298 0-23-12.48-43.671-31.623-54.673l-.377-.214v77.076H93.714V12Z" id="路径" fill="url('#linearGradient-3')"/></g><path d="M214.161 55.142a4.161 4.161 0 0 1 4.162 4.161v41.625a4.161 4.161 0 0 1-8.323 0V59.303a4.161 4.161 0 0 1 4.161-4.161Zm262.994 0a4.161 4.161 0 0 1 4.162 4.161v41.625a4.161 4.161 0 1 1-8.323 0V59.303a4.161 4.161 0 0 1 4.161-4.161Zm-206.813 0c5.688 0 10.31 4.566 10.402 10.233l.001.172v2.082a4.161 4.161 0 0 1-8.323 0v-2.082c0-1.13-.9-2.05-2.022-2.08h-29.188c-1.13 0-2.05.9-2.08 2.022l-.002.058v29.137c0 1.13.9 2.05 2.023 2.08l.058.001h29.13c1.13 0 2.05-.9 2.08-2.023l.001-.058v-2.082a4.161 4.161 0 0 1 8.323 0v2.082c0 5.69-4.565 10.312-10.231 10.404l-.172.002h-29.13c-5.69 0-10.311-4.566-10.403-10.234l-.002-.172V65.547c0-5.69 4.566-10.312 10.232-10.404l.172-.001h29.13Zm264.503 0a4.161 4.161 0 0 1 4.161 4.161v41.7a4 4 0 0 1-6.912 2.742l-30.541-32.45v29.633a4.161 4.161 0 1 1-8.323 0v-41.7a4 4 0 0 1 6.913-2.742l30.54 32.45V59.302a4.161 4.161 0 0 1 4.162-4.161Zm-199 0a4.161 4.161 0 0 1 4.161 4.161v41.7a4 4 0 0 1-6.912 2.742l-30.541-32.45v29.633a4.161 4.161 0 1 1-8.323 0v-41.7a4 4 0 0 1 6.913-2.742l30.54 32.45V59.302a4.161 4.161 0 0 1 4.162-4.161Zm241.186 0c4.713-.028 9.28 1.396 13.702 4.27a3.691 3.691 0 0 1 .659 5.643 5.239 5.239 0 0 1-6.264 1.003c-3.226-1.728-5.925-2.592-8.097-2.592-9.193 0-16.646 7.454-16.646 16.65 0 9.195 7.453 16.649 16.646 16.649 7.722 0 14.217-5.26 16.097-12.393l.024-.094h-11.959a4.162 4.162 0 1 1 0-8.325H598a4 4 0 0 1 4 4v.163c0 13.792-11.179 24.974-24.969 24.974-13.79 0-24.969-11.182-24.969-24.974 0-13.793 11.18-24.895 24.969-24.974Zm-117.936.806A4 4 0 0 1 460.509 59v41.928a4.161 4.161 0 1 1-8.323 0V71.34l-13.662 15.307a4 4 0 0 1-5.968 0L418.894 71.34v29.588a4.161 4.161 0 0 1-8.323 0V59a4 4 0 0 1 7.052-2.585l17.917 21.15 17.917-21.15a4 4 0 0 1 5.638-.467Zm-82.592-.559a4 4 0 0 1 2.166 2.18l17.689 43.289a3.07 3.07 0 0 1-2.843 4.232 6.715 6.715 0 0 1-6.247-4.253l-1.153-2.927h-22.567l-1.195 2.944a6.79 6.79 0 0 1-6.29 4.236 3.05 3.05 0 0 1-2.816-4.22l18.026-43.324a4 4 0 0 1 5.23-2.157ZM375 69.707l-8.071 19.878h15.905L375 69.707Z" id="形状结合备份-11" fill="#170438"/></g></g></g></g></svg>